<svg version="1.1" xmlns="http://www.w3.org/2000/svg" viewBox="0 0 2766.811860177966 1242.1760149668396" width="8300.435580533898" height="3726.5280449005186" filter="invert(93%) hue-rotate(180deg)">
  <!-- svg-source:excalidraw -->
  
  <defs>
    <style class="style-fonts">
      @font-face {
        font-family: "Virgil";
        src: url("https://excalidraw.com/Virgil.woff2");
      }
      @font-face {
        font-family: "Cascadia";
        src: url("https://excalidraw.com/Cascadia.woff2");
      }
      @font-face {
        font-family: "Assistant";
        src: url("https://app.excalidraw.com//dist/excalidraw-assets/Assistant-Regular.woff2");
      }
    </style>
    
  </defs>
  <rect x="0" y="0" width="2766.811860177966" height="1242.1760149668396" fill="#ffffff"></rect><g stroke-linecap="round" transform="translate(46.95949881417414 10) rotate(0 158.08547973632812 104.20512390136719)"><path d="M32 0 C102.85 2.65, 177.93 5.35, 284.17 0 M32 0 C107.8 3.36, 182.63 2.67, 284.17 0 M284.17 0 C309.16 1.78, 319.35 13.5, 316.17 32 M284.17 0 C306.41 -2.29, 313.44 6.77, 316.17 32 M316.17 32 C317.01 88.15, 316.56 147.11, 316.17 176.41 M316.17 32 C314.93 79.12, 313.53 127.26, 316.17 176.41 M316.17 176.41 C315.72 197.45, 308.1 208.96, 284.17 208.41 M316.17 176.41 C313.27 198.03, 306.63 209.8, 284.17 208.41 M284.17 208.41 C201.68 207.25, 117.8 204.63, 32 208.41 M284.17 208.41 C213.77 207.24, 141.24 207.7, 32 208.41 M32 208.41 C6.92 209.64, 0.31 194.61, 0 176.41 M32 208.41 C15.05 206.66, 3.14 195.47, 0 176.41 M0 176.41 C-3.34 139.43, 2.63 96.63, 0 32 M0 176.41 C3.08 143.25, 3.21 106.28, 0 32 M0 32 C3.45 10.49, 9.95 2.73, 32 0 M0 32 C-1.65 9.04, 15.21 -2.97, 32 0" stroke="#1971c2" stroke-width="2" fill="none"></path></g><g transform="translate(156.62495749337336 91.70512390136719) rotate(0 48.420021057128906 22.5)"><text x="48.420021057128906" y="0" font-family="Virgil, Segoe UI Emoji" font-size="36px" fill="#1971c2" text-anchor="middle" style="white-space: pre;" direction="ltr" dominant-baseline="text-before-edge">Index</text></g><g stroke-linecap="round" transform="translate(10 343.9938930935327) rotate(0 195.7075670030382 116.08732435438367)"><path d="M32 0 C102.43 -3.04, 174.08 -0.14, 359.42 0 M32 0 C159.98 -1.74, 286.4 -1.45, 359.42 0 M359.42 0 C382.67 3.09, 390.35 10.26, 391.42 32 M359.42 0 C380.93 2.49, 386.84 12.77, 391.42 32 M391.42 32 C395.75 76.13, 391.42 117.91, 391.42 200.17 M391.42 32 C392.08 94.68, 392.62 160.64, 391.42 200.17 M391.42 200.17 C395.37 224.78, 378.36 232.66, 359.42 232.17 M391.42 200.17 C387.51 220.12, 376.65 236.08, 359.42 232.17 M359.42 232.17 C232.92 235.41, 108.8 232.98, 32 232.17 M359.42 232.17 C266.25 229.97, 171.55 230.02, 32 232.17 M32 232.17 C14.37 229.23, 1.15 217.73, 0 200.17 M32 232.17 C14.59 228.61, -0.49 219.15, 0 200.17 M0 200.17 C3.9 138.14, 3.88 78.08, 0 32 M0 200.17 C1.48 141.01, -1.23 85.77, 0 32 M0 32 C-3.98 10.71, 12.52 -1.81, 32 0 M0 32 C4.42 13.15, 7.39 -0.02, 32 0" stroke="#9c36b5" stroke-width="2" fill="none"></path></g><g transform="translate(24.602800157335196 425.08121744791634) rotate(0 181.10476684570312 35)"><text x="181.10476684570312" y="0" font-family="Virgil, Segoe UI Emoji" font-size="28px" fill="#9c36b5" text-anchor="middle" style="white-space: pre;" direction="ltr" dominant-baseline="text-before-edge">Read directories and </text><text x="181.10476684570312" y="35" font-family="Virgil, Segoe UI Emoji" font-size="28px" fill="#9c36b5" text-anchor="middle" style="white-space: pre;" direction="ltr" dominant-baseline="text-before-edge">info.json for each package</text></g><g stroke-linecap="round"><g transform="translate(204.64469116886835 233.98392401801192) rotate(0 2.6549444645094127 48.01525539822046)"><path d="M0.45 1.7 C1.57 18.55, 4.14 82.73, 4.56 98.37 M-2.76 0.15 C-1.87 16.51, 0.04 78.26, 1.92 94.63" stroke="#1e1e1e" stroke-width="2" fill="none"></path></g><g transform="translate(204.64469116886835 233.98392401801192) rotate(0 2.6549444645094127 48.01525539822046)"><path d="M-7.81 66.13 C-4.75 69.9, -6.1 83.3, 5.26 91.46 M-9.11 68.91 C-6.9 76.99, -2.1 83, 0.1 95.5" stroke="#1e1e1e" stroke-width="2" fill="none"></path></g><g transform="translate(204.64469116886835 233.98392401801192) rotate(0 2.6549444645094127 48.01525539822046)"><path d="M12.66 64.74 C11.17 68.87, 5.29 82.58, 5.26 91.46 M11.37 67.51 C7.17 76.37, 5.57 82.82, 0.1 95.5" stroke="#1e1e1e" stroke-width="2" fill="none"></path></g></g><mask></mask><g stroke-linecap="round" transform="translate(1352.579524259181 286.26322630358857) rotate(0 195.70756700303832 60.72167221561125)"><path d="M30.36 0 C125.65 -4.2, 213.09 0.44, 361.05 0 M30.36 0 C122.49 2.01, 213.15 1.74, 361.05 0 M361.05 0 C378.21 -3.95, 389.52 6.62, 391.42 30.36 M361.05 0 C380.55 -3.85, 390.51 9.4, 391.42 30.36 M391.42 30.36 C387.68 49.85, 394.13 67.74, 391.42 91.08 M391.42 30.36 C389.89 42.24, 392.01 57.63, 391.42 91.08 M391.42 91.08 C395.38 115.2, 384.56 118.83, 361.05 121.44 M391.42 91.08 C389.29 109.64, 382.3 118.28, 361.05 121.44 M361.05 121.44 C287.53 124.92, 209.63 121.65, 30.36 121.44 M361.05 121.44 C270.82 124.82, 179.79 122.41, 30.36 121.44 M30.36 121.44 C11.9 120.08, 2.58 108.61, 0 91.08 M30.36 121.44 C12.9 125.89, -1.52 111.2, 0 91.08 M0 91.08 C1.72 79.1, 0.08 62.61, 0 30.36 M0 91.08 C-0.7 76.58, -2.2 61.66, 0 30.36 M0 30.36 C-0.66 13.63, 6.48 -1.17, 30.36 0 M0 30.36 C2.56 5.79, 13.61 -3.08, 30.36 0" stroke="#9c36b5" stroke-width="2" fill="none"></path></g><g transform="translate(1478.1328020166136 329.4848985191998) rotate(0 70.15428924560547 17.5)"><text x="70.15428924560547" y="0" font-family="Virgil, Segoe UI Emoji" font-size="28px" fill="#9c36b5" text-anchor="middle" style="white-space: pre;" direction="ltr" dominant-baseline="text-before-edge">Github Api</text></g><g stroke-linecap="round" transform="translate(1356.6636212640562 464.6235707698034) rotate(0 195.70756700303832 61.74059382314556)"><path d="M30.87 0 C99.14 1.21, 169.02 -0.44, 360.54 0 M30.87 0 C143.75 4, 257.62 4.3, 360.54 0 M360.54 0 C381.74 3.03, 393.99 12.88, 391.42 30.87 M360.54 0 C384.36 -0.47, 394.59 10.61, 391.42 30.87 M391.42 30.87 C389.69 51.72, 390.61 66.65, 391.42 92.61 M391.42 30.87 C392.02 52.85, 389.6 74.32, 391.42 92.61 M391.42 92.61 C390.47 113.91, 380.82 125.91, 360.54 123.48 M391.42 92.61 C388.43 112.82, 382.52 126.23, 360.54 123.48 M360.54 123.48 C273.09 126.64, 187.22 128.41, 30.87 123.48 M360.54 123.48 C271.47 121.67, 181.02 121.36, 30.87 123.48 M30.87 123.48 C8.39 120.08, -3.53 115.24, 0 92.61 M30.87 123.48 C10.93 126.97, -0.62 113.94, 0 92.61 M0 92.61 C0.35 76.29, 4.09 60.21, 0 30.87 M0 92.61 C-0.38 74.99, 0.72 56.93, 0 30.87 M0 30.87 C-0.06 12.01, 9.3 1.8, 30.87 0 M0 30.87 C-0.21 7.78, 10.34 1.74, 30.87 0" stroke="#9c36b5" stroke-width="2" fill="none"></path></g><g transform="translate(1484.0649138530318 508.86416459294895) rotate(0 68.3062744140625 17.5)"><text x="68.3062744140625" y="0" font-family="Virgil, Segoe UI Emoji" font-size="28px" fill="#9c36b5" text-anchor="middle" style="white-space: pre;" direction="ltr" dominant-baseline="text-before-edge">Gitlab Api</text></g><g stroke-linecap="round" transform="translate(560.046657986112 381.06847805447023) rotate(0 133.10540093315967 79.92394341362854)"><path d="M167.5 20 C179.22 26.5, 193.78 34.8, 232.71 60 M167.5 20 C184.06 29.01, 199.34 38.61, 232.71 60 M232.71 60 C263.37 79.42, 270.09 76.71, 232.71 100 M232.71 60 C262.27 79.64, 269.82 77.02, 232.71 100 M232.71 100 C208.39 115.67, 190.91 130.59, 167.5 139.85 M232.71 100 C217.49 108.47, 202.24 116.93, 167.5 139.85 M167.5 139.85 C133.45 156.54, 130.03 157.12, 100.5 139.85 M167.5 139.85 C132.69 162.06, 138.51 163.13, 100.5 139.85 M100.5 139.85 C75.85 128.21, 51.59 113.29, 33.5 100 M100.5 139.85 C82.09 129.03, 67.99 118.9, 33.5 100 M33.5 100 C1.4 80.89, 2.7 77.78, 33.5 60 M33.5 100 C-2.43 81.73, 4.06 83.38, 33.5 60 M33.5 60 C45.56 49.12, 67.89 44.89, 100.5 20 M33.5 60 C59.71 44.13, 83.69 28.28, 100.5 20 M100.5 20 C135.77 2.21, 133.11 -2.77, 167.5 20 M100.5 20 C137.26 -3.76, 132.37 2.03, 167.5 20" stroke="#e03131" stroke-width="2" fill="none"></path></g><g transform="translate(640.4871529473207 426.0304497612845) rotate(0 52.61220550537121 35)"><text x="52.612205505371094" y="0" font-family="Virgil, Segoe UI Emoji" font-size="28px" fill="#e03131" text-anchor="middle" style="white-space: pre;" direction="ltr" dominant-baseline="text-before-edge">Missing </text><text x="52.612205505371094" y="35" font-family="Virgil, Segoe UI Emoji" font-size="28px" fill="#e03131" text-anchor="middle" style="white-space: pre;" direction="ltr" dominant-baseline="text-before-edge">Field</text></g><g stroke-linecap="round"><g transform="translate(416.0019259982648 457.0420905219181) rotate(0 63.51372612847217 1.51947021484375)"><path d="M-0.59 2.37 C20.77 3.03, 104.77 2.51, 126.49 2.53 M4.28 1.19 C25.38 2.42, 103.1 5.2, 123.95 5.89" stroke="#1e1e1e" stroke-width="2" fill="none"></path></g><g transform="translate(416.0019259982648 457.0420905219181) rotate(0 63.51372612847217 1.51947021484375)"><path d="M98.81 14.39 C101.61 16.92, 108.38 8.48, 124.52 5.05 M96.93 15.58 C104.82 13.05, 114.74 11.09, 122.24 4.51" stroke="#1e1e1e" stroke-width="2" fill="none"></path></g><g transform="translate(416.0019259982648 457.0420905219181) rotate(0 63.51372612847217 1.51947021484375)"><path d="M99.53 -6.12 C101.95 1.31, 108.55 -2.23, 124.52 5.05 M97.64 -4.93 C104.96 -0.87, 114.64 3.78, 122.24 4.51" stroke="#1e1e1e" stroke-width="2" fill="none"></path></g></g><mask></mask><g mask="url(#mask-wU08-MmtI-uU7M9Iz0HpG)" stroke-linecap="round"><g transform="translate(698.015407986112 560.3659294976126) rotate(0 4.254489474826414 103.01995171440976)"><path d="M0.75 2.58 C1.8 37.48, 5.18 174.98, 6.67 208.64 M-2.29 1.52 C-0.36 35.77, 10.27 170.82, 12.07 205.04" stroke="#1e1e1e" stroke-width="2" fill="none"></path></g><g transform="translate(698.015407986112 560.3659294976126) rotate(0 4.254489474826414 103.01995171440976)"><path d="M3.63 174.97 C7.29 187.79, 5.21 192.5, 11.77 201.68 M0.75 179.27 C3.49 182.93, 6.83 191.62, 10.85 204.17" stroke="#1e1e1e" stroke-width="2" fill="none"></path></g><g transform="translate(698.015407986112 560.3659294976126) rotate(0 4.254489474826414 103.01995171440976)"><path d="M24.11 173.59 C21.37 186.95, 12.89 192.1, 11.77 201.68 M21.22 177.89 C18.8 181.67, 16.94 190.71, 10.85 204.17" stroke="#1e1e1e" stroke-width="2" fill="none"></path></g></g><mask id="mask-wU08-MmtI-uU7M9Iz0HpG"><rect x="0" y="0" fill="#fff" width="806.5243869357648" height="866.4058329264321"></rect><rect x="685.4978256225595" y="645.8858812120225" fill="#000" width="33.54414367675781" height="35" opacity="1"></rect></mask><g transform="translate(685.4978256225595 645.8858812120225) rotate(0 17.40999556794759 19.55673580236737)"><text x="16.772071838378906" y="0" font-family="Virgil, Segoe UI Emoji" font-size="28px" fill="#1e1e1e" text-anchor="middle" style="white-space: pre;" direction="ltr" dominant-baseline="text-before-edge">No</text></g><g stroke-linecap="round" transform="translate(541.8138970269108 792.5406121148001) rotate(0 167.14141845703125 96.33436414930554)"><path d="M32 0 C87.11 0.72, 143.5 2.29, 302.28 0 M32 0 C139.35 1.65, 246.94 3.77, 302.28 0 M302.28 0 C326.59 -3.65, 336.58 10.6, 334.28 32 M302.28 0 C328.2 1.93, 338.58 15.06, 334.28 32 M334.28 32 C330.36 74.49, 335.74 119.27, 334.28 160.67 M334.28 32 C335.8 81, 338.23 132.88, 334.28 160.67 M334.28 160.67 C332.26 178.34, 326.65 192.29, 302.28 192.67 M334.28 160.67 C332.76 180.28, 322.09 188.5, 302.28 192.67 M302.28 192.67 C205.73 188.35, 104.98 186.42, 32 192.67 M302.28 192.67 C248.14 190.16, 194.51 190.37, 32 192.67 M32 192.67 C8.51 190.81, -3.18 183.83, 0 160.67 M32 192.67 C15.2 189.14, -0.49 181.46, 0 160.67 M0 160.67 C2.03 112.13, 2.22 64.37, 0 32 M0 160.67 C1.75 108.77, 3.87 56.24, 0 32 M0 32 C-2.22 13.17, 7.96 -1.9, 32 0 M0 32 C-3 12.77, 7.82 -2.37, 32 0" stroke="#2f9e44" stroke-width="2" fill="none"></path></g><g transform="translate(587.4068077935124 871.3749762641057) rotate(0 121.54850769042969 17.5)"><text x="121.54850769042969" y="0" font-family="Virgil, Segoe UI Emoji" font-size="28px" fill="#2f9e44" text-anchor="middle" style="white-space: pre;" direction="ltr" dominant-baseline="text-before-edge">Add To index.json</text></g><g stroke-linecap="round" transform="translate(930.797390407987 376.20662095811605) rotate(0 112.44072808159717 80)"><path d="M141.25 20.25 C160.2 35.2, 179.85 48.48, 196.63 60.75 M141.25 20.25 C156.13 33.88, 172.9 44.62, 196.63 60.75 M196.63 60.75 C227.82 80.94, 223.45 82.48, 196.63 101.25 M196.63 60.75 C225.48 78.05, 221.07 79.43, 196.63 101.25 M196.63 101.25 C186.37 107.05, 170.41 118.35, 141.25 139.75 M196.63 101.25 C179.38 110.06, 166.57 122.15, 141.25 139.75 M141.25 139.75 C109.66 162.26, 112.58 157.69, 84.75 139.75 M141.25 139.75 C113.49 157.51, 113.76 163.66, 84.75 139.75 M84.75 139.75 C72.41 129.77, 54.81 120.76, 28.25 101.25 M84.75 139.75 C74.15 133.87, 61.57 125.24, 28.25 101.25 M28.25 101.25 C0.28 81.28, -3.54 84.25, 28.25 60.75 M28.25 101.25 C2.34 77.7, -3.98 80.49, 28.25 60.75 M28.25 60.75 C44.01 49.49, 66.4 31.9, 84.75 20.25 M28.25 60.75 C44.51 50.52, 58.99 39.92, 84.75 20.25 M84.75 20.25 C111.29 3.71, 112.65 3.2, 141.25 20.25 M84.75 20.25 C116.71 2.48, 116.62 -1.26, 141.25 20.25" stroke="#e03131" stroke-width="2" fill="none"></path></g><g transform="translate(1004.209580315485 421.20662095811605) rotate(0 38.80817413330078 35)"><text x="38.80817413330078" y="0" font-family="Virgil, Segoe UI Emoji" font-size="28px" fill="#e03131" text-anchor="middle" style="white-space: pre;" direction="ltr" dominant-baseline="text-before-edge">Repo </text><text x="38.80817413330078" y="35" font-family="Virgil, Segoe UI Emoji" font-size="28px" fill="#e03131" text-anchor="middle" style="white-space: pre;" direction="ltr" dominant-baseline="text-before-edge">Type</text></g><g stroke-linecap="round"><g transform="translate(839.021674262154 457.04229397243904) rotate(0 41.02556016710059 -1.8233913845486143)"><path d="M-0.25 1.98 C13.39 1.76, 70.04 -2.29, 83.34 -3.28 M-3.83 0.58 C9.41 1.06, 67 0.81, 81.8 0.55" stroke="#1e1e1e" stroke-width="2" fill="none"></path></g><g transform="translate(839.021674262154 457.04229397243904) rotate(0 41.02556016710059 -1.8233913845486143)"><path d="M56.54 12.92 C64.34 3.81, 73.37 4.92, 78.61 1.54 M53.84 13.02 C61.58 6.77, 70.85 5.76, 81.27 0.67" stroke="#1e1e1e" stroke-width="2" fill="none"></path></g><g transform="translate(839.021674262154 457.04229397243904) rotate(0 41.02556016710059 -1.8233913845486143)"><path d="M56.34 -7.6 C63.93 -9.43, 73.02 -1.04, 78.61 1.54 M53.64 -7.5 C61.8 -7.58, 71.13 -2.41, 81.27 0.67" stroke="#1e1e1e" stroke-width="2" fill="none"></path></g></g><mask></mask><g mask="url(#mask-3eM9-8tF9LIJa3yevAdOD)" stroke-linecap="round"><g transform="translate(1167.1779608960658 447.80301518703885) rotate(0 83.39863392222605 -21.516334827421602)"><path d="M-0.34 1.2 C26.74 -5.52, 136.17 -34.17, 164.48 -41.24 M-3.97 -0.61 C23.78 -8.04, 140.76 -37.76, 169.63 -45.27" stroke="#1e1e1e" stroke-width="2" fill="none"></path></g><g transform="translate(1167.1779608960658 447.80301518703885) rotate(0 83.39863392222605 -21.516334827421602)"><path d="M146.59 -31.62 C156.77 -30.62, 166.06 -39.83, 172.53 -42.82 M143.33 -30.19 C152.71 -33.38, 164.08 -42.26, 167.66 -44.58" stroke="#1e1e1e" stroke-width="2" fill="none"></path></g><g transform="translate(1167.1779608960658 447.80301518703885) rotate(0 83.39863392222605 -21.516334827421602)"><path d="M141.49 -51.5 C153.43 -43.08, 164.62 -44.91, 172.53 -42.82 M138.23 -50.06 C149.75 -45.73, 163.06 -47.01, 167.66 -44.58" stroke="#1e1e1e" stroke-width="2" fill="none"></path></g></g><mask id="mask-3eM9-8tF9LIJa3yevAdOD"><rect x="0" y="0" fill="#fff" width="1433.9752287405179" height="590.8356848418821"></rect><rect x="1210.6064257509088" y="408.7866803596173" fill="#000" width="79.94033813476562" height="35" opacity="1"></rect></mask><g transform="translate(1210.6064257509092 408.7866803596173) rotate(0 39.401221531778674 16.981483968272784)"><text x="39.97016906738281" y="0" font-family="Virgil, Segoe UI Emoji" font-size="28px" fill="#1e1e1e" text-anchor="middle" style="white-space: pre;" direction="ltr" dominant-baseline="text-before-edge">github</text></g><g mask="url(#mask-U1p_8usLCRec1NWaMXveI)" stroke-linecap="round"><g transform="translate(1172.3610532120558 452.8634591523091) rotate(0 83.00569144244969 23.924184559649888)"><path d="M0.26 -2.69 C27.89 6.07, 136.08 41.52, 163.49 49.87 M-3.04 2.02 C25.64 10.26, 140.98 37.91, 168.52 45.95" stroke="#1e1e1e" stroke-width="2" fill="none"></path></g><g transform="translate(1172.3610532120558 452.8634591523091) rotate(0 83.00569144244969 23.924184559649888)"><path d="M134.81 45.12 C148.1 46.22, 151.11 49.71, 171.76 42.97 M139.45 47.82 C148.75 47.73, 157.77 45.57, 170.11 44.6" stroke="#1e1e1e" stroke-width="2" fill="none"></path></g><g transform="translate(1172.3610532120558 452.8634591523091) rotate(0 83.00569144244969 23.924184559649888)"><path d="M140.02 25.27 C151.79 30.71, 153.66 38.53, 171.76 42.97 M144.66 27.97 C152.42 34.89, 159.61 39.72, 170.11 44.6" stroke="#1e1e1e" stroke-width="2" fill="none"></path></g></g><mask id="mask-U1p_8usLCRec1NWaMXveI"><rect x="0" y="0" fill="#fff" width="1438.3724360969552" height="600.7118282716089"></rect><rect x="1217.2445904186657" y="459.28764371195894" fill="#000" width="76.24430847167969" height="35" opacity="1"></rect></mask><g transform="translate(1217.2445904186657 459.287643711959) rotate(0 37.85796709910005 17.164396701753105)"><text x="38.122154235839844" y="0" font-family="Virgil, Segoe UI Emoji" font-size="28px" fill="#1e1e1e" text-anchor="middle" style="white-space: pre;" direction="ltr" dominant-baseline="text-before-edge">gitlab</text></g><g stroke-linecap="round" transform="translate(1718.7229696793554 799.2466336067869) rotate(0 267.57444013590475 215.00000000000006)"><path d="M32 0 C202.34 -1.06, 370.94 -2.77, 503.15 0 M32 0 C155.21 1.8, 277.76 1.74, 503.15 0 M503.15 0 C527.49 -3.27, 534.13 12.34, 535.15 32 M503.15 0 C520.68 -2.4, 535.91 7.64, 535.15 32 M535.15 32 C536.73 108.18, 536.44 184.06, 535.15 398 M535.15 32 C538.39 174.36, 537.14 318.71, 535.15 398 M535.15 398 C532.39 422.18, 526.95 426.8, 503.15 430 M535.15 398 C530.87 423.54, 527.78 430.51, 503.15 430 M503.15 430 C385.46 427.12, 269.78 424.52, 32 430 M503.15 430 C394.74 430.15, 288.34 429.95, 32 430 M32 430 C11.7 432.13, -2.65 421.06, 0 398 M32 430 C14.12 432.55, 1.55 417.25, 0 398 M0 398 C-2.65 270.54, -0.93 146.92, 0 32 M0 398 C2.88 293.47, 3.84 192.36, 0 32 M0 32 C0.18 8.6, 9.4 1.28, 32 0 M0 32 C4.33 12.23, 12.15 -1.33, 32 0" stroke="#f08c00" stroke-width="2" fill="none"></path></g><g transform="translate(1816.014664453932 804.2466336067869) rotate(0 170.28274536132812 210.00000000000006)"><text x="170.28274536132812" y="0" font-family="Virgil, Segoe UI Emoji" font-size="28px" fill="#f08c00" text-anchor="middle" style="white-space: pre;" direction="ltr" dominant-baseline="text-before-edge">package:</text><text x="170.28274536132812" y="35" font-family="Virgil, Segoe UI Emoji" font-size="28px" fill="#f08c00" text-anchor="middle" style="white-space: pre;" direction="ltr" dominant-baseline="text-before-edge">- name</text><text x="170.28274536132812" y="70" font-family="Virgil, Segoe UI Emoji" font-size="28px" fill="#f08c00" text-anchor="middle" style="white-space: pre;" direction="ltr" dominant-baseline="text-before-edge">- versions(releases)</text><text x="170.28274536132812" y="105" font-family="Virgil, Segoe UI Emoji" font-size="28px" fill="#f08c00" text-anchor="middle" style="white-space: pre;" direction="ltr" dominant-baseline="text-before-edge">- git(url)</text><text x="170.28274536132812" y="140" font-family="Virgil, Segoe UI Emoji" font-size="28px" fill="#f08c00" text-anchor="middle" style="white-space: pre;" direction="ltr" dominant-baseline="text-before-edge">- short repo x:name/repo</text><text x="170.28274536132812" y="175" font-family="Virgil, Segoe UI Emoji" font-size="28px" fill="#f08c00" text-anchor="middle" style="white-space: pre;" direction="ltr" dominant-baseline="text-before-edge">- description(scraped)</text><text x="170.28274536132812" y="210" font-family="Virgil, Segoe UI Emoji" font-size="28px" fill="#f08c00" text-anchor="middle" style="white-space: pre;" direction="ltr" dominant-baseline="text-before-edge">- readme url(realized)</text><text x="170.28274536132812" y="245" font-family="Virgil, Segoe UI Emoji" font-size="28px" fill="#f08c00" text-anchor="middle" style="white-space: pre;" direction="ltr" dominant-baseline="text-before-edge">- target_link(manual)</text><text x="170.28274536132812" y="280" font-family="Virgil, Segoe UI Emoji" font-size="28px" fill="#f08c00" text-anchor="middle" style="white-space: pre;" direction="ltr" dominant-baseline="text-before-edge">- stars</text><text x="170.28274536132812" y="315" font-family="Virgil, Segoe UI Emoji" font-size="28px" fill="#f08c00" text-anchor="middle" style="white-space: pre;" direction="ltr" dominant-baseline="text-before-edge">- maintainers</text><text x="170.28274536132812" y="350" font-family="Virgil, Segoe UI Emoji" font-size="28px" fill="#f08c00" text-anchor="middle" style="white-space: pre;" direction="ltr" dominant-baseline="text-before-edge">- dependencies</text><text x="170.28274536132812" y="385" font-family="Virgil, Segoe UI Emoji" font-size="28px" fill="#f08c00" text-anchor="middle" style="white-space: pre;" direction="ltr" dominant-baseline="text-before-edge"></text></g><g stroke-linecap="round" transform="translate(2398.8250708984524 907.6539890079196) rotate(0 178.99339463975684 92.9915025499132)"><path d="M32 0 C105.7 -1.02, 172.55 0.73, 325.99 0 M32 0 C126.14 -2.51, 220.55 -2.39, 325.99 0 M325.99 0 C348.94 1.22, 355.29 9.45, 357.99 32 M325.99 0 C349.04 1.89, 362.45 14.23, 357.99 32 M357.99 32 C359.67 72.87, 357.36 120.34, 357.99 153.98 M357.99 32 C359.44 58.13, 358.59 88.25, 357.99 153.98 M357.99 153.98 C360.11 172.22, 347.51 186.58, 325.99 185.98 M357.99 153.98 C361.83 171.87, 344.92 185.38, 325.99 185.98 M325.99 185.98 C263.99 181.75, 197.11 183.5, 32 185.98 M325.99 185.98 C221.82 189.43, 115.6 190.72, 32 185.98 M32 185.98 C6.85 185.15, -3.62 177.55, 0 153.98 M32 185.98 C14.27 182.28, 3.39 171.55, 0 153.98 M0 153.98 C0.92 109.19, 3.51 64.29, 0 32 M0 153.98 C0.65 106.85, 2.41 62.7, 0 32 M0 32 C3.58 7.57, 14.63 -2.96, 32 0 M0 32 C-0.28 10.98, 7.36 1.85, 32 0" stroke="#1971c2" stroke-width="2" fill="none"></path></g><g transform="translate(2459.797980613893 930.6454915578329) rotate(0 118.0204849243164 70)"><text x="118.0204849243164" y="0" font-family="Virgil, Segoe UI Emoji" font-size="28px" fill="#1971c2" text-anchor="middle" style="white-space: pre;" direction="ltr" dominant-baseline="text-before-edge">Manual Package </text><text x="118.0204849243164" y="35" font-family="Virgil, Segoe UI Emoji" font-size="28px" fill="#1971c2" text-anchor="middle" style="white-space: pre;" direction="ltr" dominant-baseline="text-before-edge">Adjustments</text><text x="118.0204849243164" y="70" font-family="Virgil, Segoe UI Emoji" font-size="28px" fill="#1971c2" text-anchor="middle" style="white-space: pre;" direction="ltr" dominant-baseline="text-before-edge">- target_link</text><text x="118.0204849243164" y="105" font-family="Virgil, Segoe UI Emoji" font-size="28px" fill="#1971c2" text-anchor="middle" style="white-space: pre;" direction="ltr" dominant-baseline="text-before-edge">- maintainer list</text></g><g stroke-linecap="round"><g transform="translate(2377.552453982221 1002.6798554249292) rotate(0 -55.458542371972726 0.7397190453864368)"><path d="M2.16 0.73 C-16.82 1.7, -94.59 3.71, -112.98 3.61 M-0.11 -1.34 C-18.29 -0.94, -89.63 -0.89, -107.69 -0.24" stroke="#1e1e1e" stroke-width="2" fill="none"></path></g><g transform="translate(2377.552453982221 1002.6798554249292) rotate(0 -55.458542371972726 0.7397190453864368)"><path d="M-78.62 -13.9 C-86.1 -3.04, -100.33 -0.98, -105.95 0.55 M-80.3 -12.84 C-90.77 -5.81, -98.03 -3.46, -106.38 -0.71" stroke="#1e1e1e" stroke-width="2" fill="none"></path></g><g transform="translate(2377.552453982221 1002.6798554249292) rotate(0 -55.458542371972726 0.7397190453864368)"><path d="M-78.29 6.62 C-85.56 10.67, -99.9 5.9, -105.95 0.55 M-79.97 7.68 C-90.18 7.5, -97.55 2.63, -106.38 -0.71" stroke="#1e1e1e" stroke-width="2" fill="none"></path></g></g><mask></mask><g stroke-linecap="round" transform="translate(1894.6814724213084 323.98743885165214) rotate(0 207.39821417971302 108.98372631024068)"><path d="M32 0 C143.49 -5.72, 253.56 -4.77, 382.8 0 M32 0 C144.81 0.25, 258.73 -0.72, 382.8 0 M382.8 0 C401.86 -3.48, 411.01 14.04, 414.8 32 M382.8 0 C403.68 -3.21, 415.97 14.51, 414.8 32 M414.8 32 C415.22 92.27, 411.18 150.12, 414.8 185.97 M414.8 32 C417.49 72.07, 416.6 109.46, 414.8 185.97 M414.8 185.97 C415.28 208.71, 402.2 216.97, 382.8 217.97 M414.8 185.97 C416.25 211.36, 405.94 215.1, 382.8 217.97 M382.8 217.97 C247.41 219.42, 110.7 219.12, 32 217.97 M382.8 217.97 C286.5 221.17, 190.56 220.31, 32 217.97 M32 217.97 C7.86 219.78, 0.01 205.71, 0 185.97 M32 217.97 C9.42 222.51, -2.18 211.82, 0 185.97 M0 185.97 C-5.76 130.81, -3.53 79.57, 0 32 M0 185.97 C2.8 145.36, 2.81 107.31, 0 32 M0 32 C-2.36 13.91, 14.05 -1.88, 32 0 M0 32 C-1.97 12.16, 7.71 -1.21, 32 0" stroke="#9c36b5" stroke-width="2" fill="none"></path></g><g transform="translate(2023.0353674481892 397.9711651618928) rotate(0 79.04431915283203 35)"><text x="79.04431915283203" y="0" font-family="Virgil, Segoe UI Emoji" font-size="28px" fill="#9c36b5" text-anchor="middle" style="white-space: pre;" direction="ltr" dominant-baseline="text-before-edge">Translation</text><text x="79.04431915283203" y="35" font-family="Virgil, Segoe UI Emoji" font-size="28px" fill="#9c36b5" text-anchor="middle" style="white-space: pre;" direction="ltr" dominant-baseline="text-before-edge">Layer</text></g><g stroke-linecap="round"><g transform="translate(1759.8317295797367 363.6102865763167) rotate(0 59.22503680832324 32.20059815389925)"><path d="M-1.9 -0.49 C18.42 9.89, 100 50.8, 119.88 61.62 M2.26 -3.22 C22.52 7.44, 99.64 51.94, 118.42 63.75" stroke="#1e1e1e" stroke-width="2" fill="none"></path></g><g transform="translate(1759.8317295797367 363.6102865763167) rotate(0 59.22503680832324 32.20059815389925)"><path d="M88.25 60.13 C91.63 58.18, 102.38 61.76, 116.41 66.47 M89.02 56.35 C101.89 59.77, 110.14 64.82, 120.35 62.06" stroke="#1e1e1e" stroke-width="2" fill="none"></path></g><g transform="translate(1759.8317295797367 363.6102865763167) rotate(0 59.22503680832324 32.20059815389925)"><path d="M98.78 42.52 C99.69 44.41, 108.06 51.98, 116.41 66.47 M99.55 38.74 C108.5 48.89, 112.65 60.79, 120.35 62.06" stroke="#1e1e1e" stroke-width="2" fill="none"></path></g></g><mask></mask><g stroke-linecap="round"><g transform="translate(1758.5660294135344 516.3205143542141) rotate(0 60.18587295643897 -20.717224005173023)"><path d="M-0.86 0.85 C18.47 -6.2, 98 -32.95, 117.76 -39.79 M3.87 -1.16 C23.87 -7.81, 102.88 -36.59, 122.75 -43.91" stroke="#1e1e1e" stroke-width="2" fill="none"></path></g><g transform="translate(1758.5660294135344 516.3205143542141) rotate(0 60.18587295643897 -20.717224005173023)"><path d="M101 -28.32 C110.15 -35.3, 117.91 -40.74, 121.94 -41.72 M99.82 -23.91 C105.94 -29.41, 114.71 -34.96, 122.45 -45.5" stroke="#1e1e1e" stroke-width="2" fill="none"></path></g><g transform="translate(1758.5660294135344 516.3205143542141) rotate(0 60.18587295643897 -20.717224005173023)"><path d="M93.96 -47.6 C106.01 -47.52, 116.33 -45.94, 121.94 -41.72 M92.77 -43.19 C100.97 -42.99, 111.8 -42.92, 122.45 -45.5" stroke="#1e1e1e" stroke-width="2" fill="none"></path></g></g><mask></mask><g stroke-linecap="round"><g transform="translate(2093.6154314963806 557.698881346377) rotate(0 -2.992849691087713 115.18108187544999)"><path d="M-2.29 2.37 C-2.87 41.07, -5.13 193.72, -5.97 232.15 M1.66 1.19 C0.93 39.1, -6.27 190.16, -8.2 228.11" stroke="#1e1e1e" stroke-width="2" fill="none"></path></g><g transform="translate(2093.6154314963806 557.698881346377) rotate(0 -2.992849691087713 115.18108187544999)"><path d="M-13.7 199.48 C-12.66 203.71, -9.61 214.1, -7.71 228.41 M-15.95 200.29 C-16.79 205.63, -14.51 213.21, -9.97 227.61" stroke="#1e1e1e" stroke-width="2" fill="none"></path></g><g transform="translate(2093.6154314963806 557.698881346377) rotate(0 -2.992849691087713 115.18108187544999)"><path d="M6.8 200.47 C3.51 204.15, 2.23 214.34, -7.71 228.41 M4.54 201.29 C-1.34 206.04, -4.11 213.37, -9.97 227.61" stroke="#1e1e1e" stroke-width="2" fill="none"></path></g></g><mask></mask><g stroke-linecap="round" transform="translate(34.781506896650626 1030.1323902146023) rotate(0 160.06056668971883 101.02181237611865)"><path d="M32 0 C104.51 -0.29, 175.77 -2.49, 288.12 0 M32 0 C129.27 1.2, 229.83 2.13, 288.12 0 M288.12 0 C309.08 3.25, 324.06 13.36, 320.12 32 M288.12 0 C310.23 2.67, 322.04 13.48, 320.12 32 M320.12 32 C324.45 63.97, 324.09 99.74, 320.12 170.04 M320.12 32 C322.45 80.15, 322.47 127.95, 320.12 170.04 M320.12 170.04 C323.79 187.97, 308.02 205.24, 288.12 202.04 M320.12 170.04 C315.71 190.91, 305.08 204.14, 288.12 202.04 M288.12 202.04 C188.3 197.32, 83.6 198.04, 32 202.04 M288.12 202.04 C230.24 203.37, 173.09 203.64, 32 202.04 M32 202.04 C8.93 200.52, -2.27 191.77, 0 170.04 M32 202.04 C6.59 201.23, -4.18 192.14, 0 170.04 M0 170.04 C4.06 133.41, 2.93 93.71, 0 32 M0 170.04 C-0.79 127.91, 0.01 88.43, 0 32 M0 32 C-0.86 12.38, 12.92 0.62, 32 0 M0 32 C0.29 6.66, 14.65 -2.17, 32 0" stroke="#1971c2" stroke-width="2" fill="none"></path></g><g transform="translate(142.90186515131086 1078.6542025907208) rotate(0 51.940208435058594 52.49999999999994)"><text x="51.940208435058594" y="0" font-family="Virgil, Segoe UI Emoji" font-size="28px" fill="#1971c2" text-anchor="middle" style="white-space: pre;" direction="ltr" dominant-baseline="text-before-edge">Scraper</text><text x="51.940208435058594" y="35" font-family="Virgil, Segoe UI Emoji" font-size="28px" fill="#1971c2" text-anchor="middle" style="white-space: pre;" direction="ltr" dominant-baseline="text-before-edge">- vcpkg</text><text x="51.940208435058594" y="70" font-family="Virgil, Segoe UI Emoji" font-size="28px" fill="#1971c2" text-anchor="middle" style="white-space: pre;" direction="ltr" dominant-baseline="text-before-edge">- Conan</text></g><g stroke-linecap="round"><g transform="translate(1694.4384089201915 1045.0178905515277) rotate(0 -398.3209634385946 -75.28214634447846)"><path d="M-2.03 1.08 C-77.36 -16.03, -319.98 -77.47, -452.48 -102.62 C-584.98 -127.76, -739.54 -142, -797.02 -149.78 M2.06 -0.81 C-73.4 -17.43, -320.03 -74.67, -453.54 -98.91 C-587.06 -123.15, -741.76 -136.95, -799.04 -146.25" stroke="#1e1e1e" stroke-width="2" fill="none"></path></g><g transform="translate(1694.4384089201915 1045.0178905515277) rotate(0 -398.3209634385946 -75.28214634447846)"><path d="M-768.22 -149.69 C-777.83 -151.9, -785.18 -150.58, -797.29 -149.28 M-770.88 -154.31 C-779.69 -151.25, -793.97 -146.28, -800.11 -145.28" stroke="#1e1e1e" stroke-width="2" fill="none"></path></g><g transform="translate(1694.4384089201915 1045.0178905515277) rotate(0 -398.3209634385946 -75.28214634447846)"><path d="M-770.88 -129.35 C-779.74 -137.26, -786.34 -141.68, -797.29 -149.28 M-773.54 -133.96 C-780.9 -138.89, -794.14 -141.89, -800.11 -145.28" stroke="#1e1e1e" stroke-width="2" fill="none"></path></g></g><mask></mask><g stroke-linecap="round" transform="translate(17.259457333494083 709.6251972828593) rotate(0 182.12126779361097 69.59466770943925)"><path d="M32 0 C118.28 -2.19, 197.67 -1.57, 332.24 0 M32 0 C96.91 -3.31, 164.63 -2.76, 332.24 0 M332.24 0 C353.99 -1.43, 361.05 9.41, 364.24 32 M332.24 0 C356.56 -2.61, 360.1 10.21, 364.24 32 M364.24 32 C362.86 50.93, 362.52 66.46, 364.24 107.19 M364.24 32 C365.68 61.08, 365.06 91.61, 364.24 107.19 M364.24 107.19 C367.13 126.09, 357.48 138.62, 332.24 139.19 M364.24 107.19 C368.44 128.24, 350.94 137.28, 332.24 139.19 M332.24 139.19 C251.27 133.54, 175.17 133.2, 32 139.19 M332.24 139.19 C220.23 136.91, 106.38 136.23, 32 139.19 M32 139.19 C13.34 139.18, 3.37 131.6, 0 107.19 M32 139.19 C10.6 136.9, 3.21 124.44, 0 107.19 M0 107.19 C-2.1 87.62, 1.14 71.85, 0 32 M0 107.19 C1.01 83.74, -1.83 65.31, 0 32 M0 32 C0.56 8, 11.74 -0.75, 32 0 M0 32 C-1.07 12.42, 7.94 -0.22, 32 0" stroke="#9c36b5" stroke-width="2" fill="none"></path></g><g transform="translate(39.83604739273005 744.2198649922987) rotate(0 159.544677734375 35)"><text x="159.544677734375" y="0" font-family="Virgil, Segoe UI Emoji" font-size="28px" fill="#9c36b5" text-anchor="middle" style="white-space: pre;" direction="ltr" dominant-baseline="text-before-edge">Creates </text><text x="159.544677734375" y="35" font-family="Virgil, Segoe UI Emoji" font-size="28px" fill="#9c36b5" text-anchor="middle" style="white-space: pre;" direction="ltr" dominant-baseline="text-before-edge">package_name/info.json</text></g><g stroke-linecap="round"><g transform="translate(203.64691361109772 1010.599266376978) rotate(0 2.7107576723220745 -73.66180308997951)"><path d="M-1.26 1.07 C0.34 -23.15, 6.89 -121.23, 7.75 -145.76 M3.26 -0.82 C4.86 -25.82, 7.1 -124.89, 6.78 -149.92" stroke="#1e1e1e" stroke-width="2" fill="none"></path></g><g transform="translate(203.64691361109772 1010.599266376978) rotate(0 2.7107576723220745 -73.66180308997951)"><path d="M18.34 -118.31 C16.79 -130.5, 13.94 -138.98, 2.89 -151.74 M15.87 -120.98 C13.2 -127.13, 9.73 -137.4, 5.26 -151.74" stroke="#1e1e1e" stroke-width="2" fill="none"></path></g><g transform="translate(203.64691361109772 1010.599266376978) rotate(0 2.7107576723220745 -73.66180308997951)"><path d="M-2.19 -118.48 C1.07 -130.44, 3.03 -138.88, 2.89 -151.74 M-4.65 -121.14 C-2.11 -127.08, -0.36 -137.31, 5.26 -151.74" stroke="#1e1e1e" stroke-width="2" fill="none"></path></g></g><mask></mask><g stroke-linecap="round"><g transform="translate(196.32010455238265 686.125587768546) rotate(0 6.788061858158244 -51.066203135813225)"><path d="M-0.94 0.29 C1.05 -16.53, 10.19 -83.92, 12.48 -100.61 M3.75 -2.02 C5.21 -19.69, 8.51 -87.77, 9.64 -104.79" stroke="#1e1e1e" stroke-width="2" fill="none"></path></g><g transform="translate(196.32010455238265 686.125587768546) rotate(0 6.788061858158244 -51.066203135813225)"><path d="M18.71 -77.64 C17.62 -86.49, 15.9 -91.55, 12.43 -105.58 M18.35 -77.28 C14.53 -88.54, 12.41 -95.94, 8.74 -105.64" stroke="#1e1e1e" stroke-width="2" fill="none"></path></g><g transform="translate(196.32010455238265 686.125587768546) rotate(0 6.788061858158244 -51.066203135813225)"><path d="M-1.78 -78.8 C3.71 -87.14, 8.58 -91.83, 12.43 -105.58 M-2.13 -78.44 C1.66 -89.01, 7.15 -95.97, 8.74 -105.64" stroke="#1e1e1e" stroke-width="2" fill="none"></path></g></g><mask></mask></svg>